<mxfile host="app.diagrams.net" modified="2021-04-06T12:26:45.277Z" agent="5.0 (Windows NT 10.0; Win64; x64) AppleWebKit/537.36 (KHTML, like Gecko) Chrome/89.0.4389.114 Safari/537.36" etag="PjmEBXhT3u5OcOMW6x8t" version="14.5.7" type="github">
  <diagram id="2IHAyBC6-V2in-pEHZSB" name="Page-1">
    <mxGraphModel dx="979" dy="1263" grid="1" gridSize="10" guides="1" tooltips="1" connect="1" arrows="1" fold="1" page="1" pageScale="1" pageWidth="850" pageHeight="1100" math="0" shadow="0">
      <root>
        <mxCell id="0" />
        <mxCell id="1" parent="0" />
        <mxCell id="0afhDAOQh3jEqX-bZtkd-7" style="edgeStyle=orthogonalEdgeStyle;rounded=0;orthogonalLoop=1;jettySize=auto;html=1;entryX=0.5;entryY=0;entryDx=0;entryDy=0;" edge="1" parent="1" source="0afhDAOQh3jEqX-bZtkd-3" target="0afhDAOQh3jEqX-bZtkd-5">
          <mxGeometry relative="1" as="geometry" />
        </mxCell>
        <mxCell id="0afhDAOQh3jEqX-bZtkd-3" value="START ACCOUNT CREATOR MODULE" style="rounded=1;whiteSpace=wrap;html=1;arcSize=50;perimeterSpacing=0;spacing=9;" vertex="1" parent="1">
          <mxGeometry x="10" y="10" width="140" height="60" as="geometry" />
        </mxCell>
        <mxCell id="0afhDAOQh3jEqX-bZtkd-19" style="edgeStyle=orthogonalEdgeStyle;rounded=0;orthogonalLoop=1;jettySize=auto;html=1;entryX=0.5;entryY=0;entryDx=0;entryDy=0;" edge="1" parent="1" source="0afhDAOQh3jEqX-bZtkd-4" target="0afhDAOQh3jEqX-bZtkd-20">
          <mxGeometry relative="1" as="geometry">
            <mxPoint x="240" y="310" as="targetPoint" />
            <Array as="points">
              <mxPoint x="240" y="290" />
            </Array>
          </mxGeometry>
        </mxCell>
        <mxCell id="0afhDAOQh3jEqX-bZtkd-22" value="" style="edgeStyle=orthogonalEdgeStyle;rounded=0;orthogonalLoop=1;jettySize=auto;html=1;" edge="1" parent="1" source="0afhDAOQh3jEqX-bZtkd-4" target="0afhDAOQh3jEqX-bZtkd-21">
          <mxGeometry relative="1" as="geometry" />
        </mxCell>
        <mxCell id="0afhDAOQh3jEqX-bZtkd-4" value="Email type" style="rounded=0;whiteSpace=wrap;html=1;" vertex="1" parent="1">
          <mxGeometry x="10" y="260" width="140" height="40" as="geometry" />
        </mxCell>
        <mxCell id="0afhDAOQh3jEqX-bZtkd-9" value="" style="edgeStyle=orthogonalEdgeStyle;rounded=0;orthogonalLoop=1;jettySize=auto;html=1;" edge="1" parent="1" source="0afhDAOQh3jEqX-bZtkd-5">
          <mxGeometry relative="1" as="geometry">
            <mxPoint x="80.0344827586207" y="140.01231527093591" as="targetPoint" />
          </mxGeometry>
        </mxCell>
        <mxCell id="0afhDAOQh3jEqX-bZtkd-5" value="2Captcha API key" style="shape=parallelogram;perimeter=parallelogramPerimeter;whiteSpace=wrap;html=1;fixedSize=1;" vertex="1" parent="1">
          <mxGeometry x="10" y="90" width="140" height="30" as="geometry" />
        </mxCell>
        <mxCell id="0afhDAOQh3jEqX-bZtkd-14" value="" style="edgeStyle=orthogonalEdgeStyle;rounded=0;orthogonalLoop=1;jettySize=auto;html=1;" edge="1" parent="1" source="0afhDAOQh3jEqX-bZtkd-10" target="0afhDAOQh3jEqX-bZtkd-11">
          <mxGeometry relative="1" as="geometry" />
        </mxCell>
        <mxCell id="0afhDAOQh3jEqX-bZtkd-15" value="" style="edgeStyle=orthogonalEdgeStyle;rounded=0;orthogonalLoop=1;jettySize=auto;html=1;" edge="1" parent="1" source="0afhDAOQh3jEqX-bZtkd-10" target="0afhDAOQh3jEqX-bZtkd-12">
          <mxGeometry relative="1" as="geometry" />
        </mxCell>
        <mxCell id="0afhDAOQh3jEqX-bZtkd-10" value="Username type" style="rounded=0;whiteSpace=wrap;html=1;" vertex="1" parent="1">
          <mxGeometry x="10" y="140" width="140" height="40" as="geometry" />
        </mxCell>
        <mxCell id="0afhDAOQh3jEqX-bZtkd-16" style="edgeStyle=orthogonalEdgeStyle;rounded=0;orthogonalLoop=1;jettySize=auto;html=1;" edge="1" parent="1" source="0afhDAOQh3jEqX-bZtkd-11" target="0afhDAOQh3jEqX-bZtkd-4">
          <mxGeometry relative="1" as="geometry">
            <mxPoint x="170" y="280" as="targetPoint" />
            <Array as="points">
              <mxPoint x="240" y="270" />
            </Array>
          </mxGeometry>
        </mxCell>
        <mxCell id="0afhDAOQh3jEqX-bZtkd-11" value="Autogen" style="rhombus;whiteSpace=wrap;html=1;" vertex="1" parent="1">
          <mxGeometry x="170" y="200" width="140" height="40" as="geometry" />
        </mxCell>
        <mxCell id="0afhDAOQh3jEqX-bZtkd-18" value="" style="edgeStyle=orthogonalEdgeStyle;rounded=0;orthogonalLoop=1;jettySize=auto;html=1;" edge="1" parent="1" source="0afhDAOQh3jEqX-bZtkd-12" target="0afhDAOQh3jEqX-bZtkd-4">
          <mxGeometry relative="1" as="geometry" />
        </mxCell>
        <mxCell id="0afhDAOQh3jEqX-bZtkd-12" value="Manual submit" style="rhombus;whiteSpace=wrap;html=1;" vertex="1" parent="1">
          <mxGeometry x="10" y="200" width="140" height="40" as="geometry" />
        </mxCell>
        <mxCell id="0afhDAOQh3jEqX-bZtkd-25" style="edgeStyle=orthogonalEdgeStyle;rounded=0;orthogonalLoop=1;jettySize=auto;html=1;entryX=1;entryY=0.5;entryDx=0;entryDy=0;" edge="1" parent="1" source="0afhDAOQh3jEqX-bZtkd-20" target="0afhDAOQh3jEqX-bZtkd-23">
          <mxGeometry relative="1" as="geometry">
            <Array as="points">
              <mxPoint x="240" y="400" />
            </Array>
          </mxGeometry>
        </mxCell>
        <mxCell id="0afhDAOQh3jEqX-bZtkd-20" value="Autogen" style="rhombus;whiteSpace=wrap;html=1;" vertex="1" parent="1">
          <mxGeometry x="170" y="320" width="140" height="40" as="geometry" />
        </mxCell>
        <mxCell id="0afhDAOQh3jEqX-bZtkd-24" value="" style="edgeStyle=orthogonalEdgeStyle;rounded=0;orthogonalLoop=1;jettySize=auto;html=1;" edge="1" parent="1" source="0afhDAOQh3jEqX-bZtkd-21" target="0afhDAOQh3jEqX-bZtkd-23">
          <mxGeometry relative="1" as="geometry" />
        </mxCell>
        <mxCell id="0afhDAOQh3jEqX-bZtkd-21" value="Manual submit" style="rhombus;whiteSpace=wrap;html=1;" vertex="1" parent="1">
          <mxGeometry x="10" y="320" width="140" height="40" as="geometry" />
        </mxCell>
        <mxCell id="0afhDAOQh3jEqX-bZtkd-30" value="" style="edgeStyle=orthogonalEdgeStyle;rounded=0;orthogonalLoop=1;jettySize=auto;html=1;" edge="1" parent="1" source="0afhDAOQh3jEqX-bZtkd-23" target="0afhDAOQh3jEqX-bZtkd-26">
          <mxGeometry relative="1" as="geometry" />
        </mxCell>
        <mxCell id="0afhDAOQh3jEqX-bZtkd-23" value="Create account @ reddit" style="rounded=0;whiteSpace=wrap;html=1;" vertex="1" parent="1">
          <mxGeometry x="10" y="380" width="140" height="40" as="geometry" />
        </mxCell>
        <mxCell id="0afhDAOQh3jEqX-bZtkd-32" value="" style="edgeStyle=orthogonalEdgeStyle;rounded=0;orthogonalLoop=1;jettySize=auto;html=1;" edge="1" parent="1" source="0afhDAOQh3jEqX-bZtkd-26" target="0afhDAOQh3jEqX-bZtkd-31">
          <mxGeometry relative="1" as="geometry" />
        </mxCell>
        <mxCell id="0afhDAOQh3jEqX-bZtkd-26" value="Email verify accounts" style="rounded=0;whiteSpace=wrap;html=1;" vertex="1" parent="1">
          <mxGeometry x="10" y="440" width="140" height="40" as="geometry" />
        </mxCell>
        <mxCell id="0afhDAOQh3jEqX-bZtkd-31" value="Verfied account information" style="shape=parallelogram;perimeter=parallelogramPerimeter;whiteSpace=wrap;html=1;fixedSize=1;" vertex="1" parent="1">
          <mxGeometry x="10" y="500" width="140" height="40" as="geometry" />
        </mxCell>
      </root>
    </mxGraphModel>
  </diagram>
</mxfile>
